<svg width="61" height="61" viewBox="0 0 61 61" fill="none" xmlns="http://www.w3.org/2000/svg">
<path d="M0.5 0.5H60.5V60.5H0.5V0.5Z" fill="black"/>
<path d="M7.03 49.25H29.53V53H7.03V49.25Z" fill="white"/>
<path d="M6.09 16L7.76 14.42C7.91892 14.6708 8.13497 14.8804 8.39048 15.0316C8.64599 15.1828 8.93368 15.2714 9.23 15.29C9.87 15.29 10.29 14.85 10.29 13.98V8H12.87V14C12.9086 14.4697 12.8514 14.9424 12.7018 15.3893C12.5523 15.8362 12.3135 16.2481 12 16.6C11.6556 16.9203 11.2512 17.1691 10.8101 17.3322C10.3689 17.4952 9.89989 17.5693 9.43 17.55C8.788 17.5921 8.1457 17.4723 7.5621 17.2014C6.9785 16.9306 6.4723 16.5175 6.09 16V16Z" fill="white"/>
<path d="M14 8H21.53V10.19H16.53V11.63H21.02V13.63H16.6V15.12H21.6V17.33H14V8Z" fill="white"/>
<path d="M25.23 10.29H22.43V8H30.64V10.27H27.83V17.37H25.23V10.29Z" fill="white"/>
<path d="M7.12999 21.08H11.55C12.4761 21.0105 13.3923 21.3087 14.1 21.91C14.2982 22.1112 14.4536 22.3506 14.5567 22.6136C14.6598 22.8765 14.7086 23.1577 14.7 23.44C14.7112 23.8958 14.578 24.3434 14.3193 24.7188C14.0607 25.0942 13.6899 25.3782 13.26 25.53C13.792 25.6275 14.2717 25.9118 14.6127 26.3316C14.9537 26.7515 15.1336 27.2793 15.12 27.82C15.12 29.43 13.81 30.41 11.57 30.41H7.12999V21.08ZM12.13 23.97C12.13 23.45 11.71 23.17 10.95 23.17H9.65999V24.81H10.9C11.69 24.81 12.15 24.55 12.15 24L12.13 23.97ZM11.23 26.63H9.65999V28.36H11.28C12.08 28.36 12.52 28.05 12.52 27.5C12.52 27 12.12 26.63 11.25 26.63H11.23Z" fill="white"/>
<path d="M16 21.08H20.1C21.1922 21.0087 22.269 21.3676 23.1 22.08C23.3941 22.3623 23.6261 22.7029 23.7811 23.08C23.936 23.4571 24.0106 23.8624 24 24.27C24.018 24.8924 23.8419 25.5051 23.4961 26.0229C23.1503 26.5408 22.6519 26.9382 22.07 27.16L24.31 30.43H21.31L19.43 27.59H18.56V30.43H16V21.08ZM20 25.58C20.87 25.58 21.39 25.15 21.39 24.47C21.39 23.72 20.85 23.35 19.99 23.35H18.55V25.61L20 25.58Z" fill="white"/>
<path d="M27.59 21H30.09L34.09 30.44H31.3L30.63 28.75H27L26.33 30.44H23.62L27.59 21ZM29.86 26.73L28.86 24.08L27.8 26.73H29.86Z" fill="white"/>
<path d="M34.46 21.05H37.06V30.42H34.46V21.05Z" fill="white"/>
<path d="M38.06 21.05H40.48L43.85 26.05V21.05H46.42V30.42H44.16L40.63 25.28V30.42H38.06V21.05Z" fill="white"/>
<path d="M46.86 29L48.31 27.27C49.1526 27.9765 50.2107 28.3751 51.31 28.4C52.02 28.4 52.39 28.16 52.39 27.75C52.39 27.35 52.08 27.15 50.8 26.84C48.8 26.38 47.27 25.84 47.27 23.91C47.27 22.17 48.64 20.91 50.89 20.91C52.2841 20.8564 53.652 21.2993 54.75 22.16L53.49 24C52.7314 23.4325 51.8169 23.1114 50.87 23.08C50.24 23.08 49.93 23.33 49.93 23.68C49.93 24.1 50.25 24.29 51.56 24.59C53.7 25.05 55 25.75 55 27.5C55 29.41 53.49 30.5 51.21 30.5C49.6267 30.5398 48.0822 30.0072 46.86 29V29Z" fill="white"/>
</svg>
