<svg width="1642" height="600" viewBox="0 0 1642 600" fill="none" xmlns="http://www.w3.org/2000/svg">
<g clip-path="url(#clip0)">
<path d="M300 600C465.685 600 600 465.685 600 300C600 134.315 465.685 0 300 0C134.315 0 0 134.315 0 300C0 465.685 134.315 600 300 600Z" fill="#29ABE0"/>
<path d="M455.642 329.8C438.053 331.97 423.776 330.371 423.776 330.371V222.552H445.477C459.754 222.552 473.574 228.491 482.94 239.342C489.564 246.994 494.818 257.73 494.818 272.578C494.704 308.899 476.087 323.176 455.642 329.8ZM548.385 254.19C542.103 220.839 524.057 200.052 505.669 187.145C486.595 173.896 463.866 167.044 440.566 167.044H110.941C99.5192 167.044 95.0648 178.237 95.0648 183.833C95.0648 184.518 95.0648 187.488 95.0648 187.488C95.0648 187.488 94.6079 333.227 95.6359 411.122C98.7197 457.15 144.863 457.036 144.863 457.036C144.863 457.036 295.284 456.579 367.354 456.122C370.78 456.122 374.093 455.78 377.405 454.866C418.522 444.587 422.748 406.439 422.292 385.195C504.869 389.878 563.119 331.628 548.385 254.19Z" fill="white"/>
<path d="M256.565 396.616C260.106 398.444 262.39 396.159 262.39 396.159C262.39 396.159 314.929 348.303 338.572 320.777C359.587 296.107 360.958 254.532 324.866 238.999C288.774 223.466 259.078 257.274 259.078 257.274C233.265 228.948 194.318 230.319 176.272 249.507C158.226 268.695 164.508 301.589 177.985 319.864C190.663 336.996 246.057 386.565 254.509 394.903C254.509 394.903 255.195 395.588 256.565 396.616Z" fill="#FF5E5B"/>
<path d="M945.7 421.3C946.8 424.6 947.4 427.6 947.4 430.4C947.4 438 944.5 444.4 938.7 449.5C932.9 454.6 926.2 457.1 918.6 457.1C914.9 457.1 911.4 456.3 908 454.6C904.6 452.9 901.8 450.5 899.5 447.4L807.6 326.2L767.3 364.8V431.3C767.3 438.9 764.8 445.1 759.9 449.9C755 454.7 748.5 457.1 740.6 457.1C733 457.1 726.7 454.6 721.7 449.7C716.8 444.8 714.3 438.6 714.3 431.3V186.4C714.3 179.1 716.8 172.9 721.9 168C727 163.1 733.5 160.6 741.4 160.6C749 160.6 755.2 163 760 167.8C764.8 172.6 767.2 178.8 767.2 186.4V301.6L902.8 168.1C909.3 161.6 916.2 158.4 923.6 158.4C930.1 158.4 935.6 161.1 940.1 166.4C944.6 171.8 946.9 177.4 946.9 183.3C946.9 189.2 944.4 194.7 939.3 199.8L847 288.1L941.5 413.1C943.1 415.3 944.5 418.1 945.7 421.3Z" fill="white"/>
<path d="M1190.1 404.8C1179.9 422.7 1166 436.6 1148.4 446.5C1130.7 456.4 1111.3 461.3 1090.1 461.3C1068.6 461.3 1049.1 456.4 1031.6 446.5C1014.1 436.6 1000.2 422.7 990.1 404.8C979.9 386.9 974.8 366.6 974.8 344C974.8 321.4 979.9 301.1 990.1 283.2C1000.3 265.3 1014.1 251.3 1031.6 241.3C1049.1 231.3 1068.6 226.3 1090.1 226.3C1111.3 226.3 1130.7 231.3 1148.4 241.3C1166 251.3 1180 265.3 1190.1 283.2C1200.3 301.1 1205.4 321.4 1205.4 344C1205.4 366.6 1200.3 386.8 1190.1 404.8ZM1145.9 306.9C1140.1 296 1132.3 287.6 1122.6 281.7C1112.9 275.8 1102.1 272.8 1090.2 272.8C1078.3 272.8 1067.5 275.8 1057.8 281.7C1048.1 287.6 1040.3 296 1034.5 306.9C1028.7 317.8 1025.8 330.1 1025.8 344C1025.8 357.8 1028.7 370.1 1034.5 380.9C1040.3 391.6 1048.1 400 1057.8 405.9C1067.5 411.8 1078.3 414.8 1090.2 414.8C1102.1 414.8 1112.9 411.8 1122.6 405.9C1132.3 400 1140.1 391.6 1145.9 380.9C1151.7 370.2 1154.6 357.9 1154.6 344C1154.6 330.1 1151.7 317.8 1145.9 306.9Z" fill="white"/>
<path d="M1248.8 345.2C1243.9 340.4 1241.4 334.3 1241.4 327C1241.4 319.9 1243.9 314 1248.8 309.2C1253.7 304.4 1259.9 302 1267.2 302H1340.9C1348.2 302 1354.4 304.5 1359.3 309.4C1364.2 314.3 1366.7 320.5 1366.7 327.8C1366.7 334.9 1364.2 340.7 1359.3 345.4C1354.4 350.1 1348.2 352.4 1340.9 352.4H1267.2C1259.9 352.5 1253.8 350.1 1248.8 345.2Z" fill="white"/>
<path d="M1504.1 196.7C1500.1 202.2 1498.2 208.2 1498.2 214.7V234.6H1536.8C1543.6 234.6 1549.2 236.8 1553.7 241.2C1558.2 245.6 1560.5 251.2 1560.5 257.9C1560.5 264.7 1558.2 270.3 1553.7 274.6C1549.2 279 1543.5 281.2 1536.8 281.2H1498.2V431.2C1498.2 438.5 1495.8 444.7 1491 449.6C1486.2 454.5 1480.1 457 1472.8 457C1465.5 457 1459.4 454.5 1454.6 449.6C1449.8 444.7 1447.4 438.5 1447.4 431.2V281.2H1424.5C1417.7 281.2 1412.1 279 1407.6 274.6C1403.1 270.2 1400.8 264.6 1400.8 257.9C1400.8 251.1 1403.1 245.5 1407.6 241.2C1412.1 236.8 1417.8 234.6 1424.5 234.6H1447.4V215.1C1447.4 193.9 1454.7 176.7 1469.2 163.4C1483.7 150.1 1504.7 143.5 1532.1 143.5C1542.5 143.5 1551.7 145.6 1559.4 149.9C1567.2 154.1 1571.1 160.6 1571.1 169.4C1571.1 176.2 1569.1 181.7 1565.2 185.9C1561.2 190.1 1556.4 192.3 1550.8 192.3C1549.4 192.3 1547.9 192.2 1546.4 191.9C1544.8 191.6 1543.2 191.3 1541.5 191.1C1534.7 189.4 1529.1 188.6 1524.6 188.6C1514.8 188.5 1508 191.2 1504.1 196.7ZM1593.9 198.2C1589.9 195.1 1588 189.6 1588 181.7V173.7C1588 165.8 1590.1 160.3 1594.4 157.2C1598.6 154.1 1605.4 152.5 1614.7 152.5C1624.6 152.5 1631.5 154.1 1635.5 157.2C1639.5 160.3 1641.4 165.8 1641.4 173.7V181.7C1641.4 189.9 1639.3 195.5 1635.3 198.4C1631.2 201.4 1624.2 202.8 1614.3 202.8C1604.6 202.9 1597.9 201.3 1593.9 198.2ZM1632.9 449.7C1628.1 454.6 1622 457.1 1614.7 457.1C1607.4 457.1 1601.3 454.6 1596.5 449.7C1591.7 444.8 1589.3 438.6 1589.3 431.3V256.3C1589.3 249 1591.7 242.8 1596.5 237.9C1601.3 233 1607.4 230.5 1614.7 230.5C1622 230.5 1628.1 233 1632.9 237.9C1637.7 242.8 1640.1 249 1640.1 256.3V431.3C1640.1 438.6 1637.7 444.7 1632.9 449.7Z" fill="white"/>
</g>
<defs>
<clipPath id="clip0">
<rect width="1641.4" height="600" fill="white"/>
</clipPath>
</defs>
</svg>
